<svg id="Ebene_1" data-name="Ebene 1" xmlns="http://www.w3.org/2000/svg" viewBox="0 0 553.22 292.03"><defs><style>.cls-1{fill:#ededed;}</style></defs><path class="cls-1" d="M288.5,73.69a18.64,18.64,0,0,0-6.69,6.8l-5.61,9.6a10.3,10.3,0,0,0-1.39,4.8c0,3.2,1.79,4.8,5.39,4.8,4.8,0,7.2,1.14,7.2,3.4q0,3-5.2,4.8a22.3,22.3,0,0,1-7.39,1.4,16.27,16.27,0,0,0-8.5,2.8,18.78,18.78,0,0,0-6.71,6.8l-98.2,170.2q-3,5.21-6.4,5.2a3.53,3.53,0,0,1-3-1.8l-26.4-45.2a9,9,0,0,1-1.2-5,21.34,21.34,0,0,1,3-10.8l92.8-160.6a19,19,0,0,1,6.6-6.8,15.83,15.83,0,0,1,8.4-2.8h67.2c4.8,0,7.2,1.14,7.2,3.4q0,3-5.2,4.8a22.35,22.35,0,0,1-7.4,1.4A16.3,16.3,0,0,0,288.5,73.69Z" transform="translate(-124.4 -48.89)"/><path class="cls-1" d="M415.2,118.89q5.4,0,5.4,4.8a10.26,10.26,0,0,1-1.4,4.8l-50,86.4a18.6,18.6,0,0,1-6.7,6.8,16,16,0,0,1-8.3,2.8H219.8q-5.6,0-5.6-4.8a10.32,10.32,0,0,1,1.4-4.8l22.2-38.4a20.83,20.83,0,0,1,6.8-6.8,15.77,15.77,0,0,1,8.4-2.8h67.2a15.94,15.94,0,0,0,8.45-2.79,20.78,20.78,0,0,0,6.83-6.78l11.06-19.15a11.24,11.24,0,0,0,1.26-4.84c0-3.22-1.8-4.84-5.4-4.84a15.45,15.45,0,0,0-8.32,2.83,20.66,20.66,0,0,0-6.73,6.86l-5.58,9.61a18.54,18.54,0,0,1-6.71,6.73,16.16,16.16,0,0,1-8.32,2.77H258.61q-5.61,0-5.61-4.8a10.32,10.32,0,0,1,1.4-4.8l11.2-19.2a18.75,18.75,0,0,1,6.7-6.8,16.27,16.27,0,0,1,8.5-2.8Zm-96.44,67.18a10,10,0,0,0,1.44-4.79q0-4.78-5.6-4.79a15.77,15.77,0,0,0-8.4,2.8,19,19,0,0,0-6.6,6.8l-11.2,19.2a10.32,10.32,0,0,0-1.4,4.8q0,4.8,5.4,4.8a16.22,16.22,0,0,0,8.51-2.8,18.5,18.5,0,0,0,6.7-6.79Z" transform="translate(-124.4 -48.89)"/><path class="cls-1" d="M578.2,118.89q5.4,0,5.4,4.8a10.26,10.26,0,0,1-1.4,4.8l-50,86.4a18.6,18.6,0,0,1-6.7,6.8,16,16,0,0,1-8.3,2.8H382.8q-5.6,0-5.6-4.8a10.32,10.32,0,0,1,1.4-4.8l93-160.8c2-3.46,4.07-5.2,6.2-5.2a3.53,3.53,0,0,1,3,1.8l26.6,45.2a10.49,10.49,0,0,1,1.2,5.4,18.2,18.2,0,0,1-2.4,9.2,7.44,7.44,0,0,0-1.2,3.8q0,4.6,6,4.6Zm-68.8,19.2a10.26,10.26,0,0,0,1.4-4.8q0-4.8-5.39-4.8a15.77,15.77,0,0,0-8.39,2.8,20.72,20.72,0,0,0-6.79,6.81l-38.8,67.21A10.09,10.09,0,0,0,450,210.1q0,4.78,5.4,4.79a16.19,16.19,0,0,0,8.5-2.8,18.52,18.52,0,0,0,6.7-6.8Z" transform="translate(-124.4 -48.89)"/><path class="cls-1" d="M433.63,235.32q5.4,0,5.4,4.8a10.26,10.26,0,0,1-1.4,4.8l-11.2,19.2a18.68,18.68,0,0,1-6.7,6.8,16,16,0,0,1-8.3,2.8h-48q-5.6,0-5.6-4.8a10.26,10.26,0,0,1,1.4-4.8l5.6-9.6a10.26,10.26,0,0,0,1.4-4.8q0-4.8-5.4-4.8a15.76,15.76,0,0,0-8.4,2.79,20.77,20.77,0,0,0-6.81,6.8l-44.53,76.73a18.76,18.76,0,0,1-6.68,6.86,15.88,15.88,0,0,1-8.28,2.82H238.22q-5.59,0-5.59-4.8a10.26,10.26,0,0,1,1.4-4.8l50-86.4a18.68,18.68,0,0,1,6.7-6.8,16.19,16.19,0,0,1,8.5-2.8Z" transform="translate(-124.4 -48.89)"/><path class="cls-1" d="M400.23,340.92q-5.6,0-5.6-4.8a10.26,10.26,0,0,1,1.4-4.8l50-86.4a18.68,18.68,0,0,1,6.7-6.8,16.19,16.19,0,0,1,8.5-2.8h48q5.4,0,5.4,4.8a10.26,10.26,0,0,1-1.4,4.8l-50,86.4a18.68,18.68,0,0,1-6.7,6.8,16,16,0,0,1-8.3,2.8Z" transform="translate(-124.4 -48.89)"/><path class="cls-1" d="M665,264.12a18.68,18.68,0,0,1-6.7,6.8,16,16,0,0,1-8.3,2.8h-39.6q-6.6,0-6.6,4a5,5,0,0,0,.6,2.2l22.4,38a10.44,10.44,0,0,1,1.2,5.4,18.23,18.23,0,0,1-2.4,9.2,17,17,0,0,1-6.3,5.9,16.22,16.22,0,0,1-8.1,2.5h-48c-3.74,0-5.6-1.6-5.6-4.8a10.17,10.17,0,0,1,1.4-4.8l27.79-48a10.17,10.17,0,0,0,1.41-4.8q0-4.78-5.4-4.79a16.19,16.19,0,0,0-8.5,2.8,18.6,18.6,0,0,0-6.7,6.8l-27.78,48a18.68,18.68,0,0,1-6.71,6.79,16,16,0,0,1-8.3,2.8h-48c-3.74,0-5.6-1.6-5.6-4.8a10.14,10.14,0,0,1,1.4-4.8l93-160.8c2-3.47,4.06-5.2,6.2-5.2a3.53,3.53,0,0,1,3,1.8l26.6,45.21a10.44,10.44,0,0,1,1.2,5.4,18.38,18.38,0,0,1-2.37,9.2l-16,27.62a9.88,9.88,0,0,0-1.45,4.78q0,4.79,5.4,4.79a16.21,16.21,0,0,0,8.5-2.8,18.68,18.68,0,0,0,6.7-6.8l5.6-9.6a18.6,18.6,0,0,1,6.7-6.8,16.19,16.19,0,0,1,8.5-2.8h48q5.4,0,5.4,4.8a10.26,10.26,0,0,1-1.4,4.8Z" transform="translate(-124.4 -48.89)"/></svg>