<?xml version="1.0" encoding="utf-8"?>
<!-- Generator: Adobe Illustrator 25.0.0, SVG Export Plug-In . SVG Version: 6.00 Build 0)  -->
<svg version="1.1" id="Ebene_1" xmlns="http://www.w3.org/2000/svg" xmlns:xlink="http://www.w3.org/1999/xlink" x="0px" y="0px"
	 viewBox="0 0 35.6 35.6" style="enable-background:new 0 0 35.6 35.6;" xml:space="preserve">
<style type="text/css">
	.st0{fill:#EDEDED;}
</style>
<path class="st0" d="M27.2,6.4c-1.2,0-2.1,0.9-2.1,2.1c0,1.2,0.9,2.1,2.1,2.1c1.2,0,2.1-0.9,2.1-2.1c0,0,0,0,0,0
	C29.3,7.3,28.4,6.4,27.2,6.4z"/>
<path class="st0" d="M17.9,9c-4.8,0-8.8,3.9-8.8,8.8s3.9,8.8,8.8,8.8c4.8,0,8.8-3.9,8.8-8.8c0,0,0,0,0,0C26.7,13,22.8,9,17.9,9
	L17.9,9z M17.9,23.4c-3.1,0-5.6-2.5-5.6-5.6s2.5-5.6,5.6-5.6s5.6,2.5,5.6,5.6l0,0C23.6,20.9,21,23.4,17.9,23.4z"/>
<path class="st0" d="M24.9,35.6H10.7C4.8,35.6,0,30.8,0,24.9V10.7C0,4.8,4.8,0,10.7,0h14.2c5.9,0,10.7,4.8,10.7,10.7v14.2
	C35.6,30.8,30.9,35.6,24.9,35.6z M10.7,3.3c-4.1,0-7.3,3.3-7.3,7.4v14.2c0,4.1,3.3,7.3,7.3,7.4h14.2c4.1,0,7.3-3.3,7.3-7.4V10.7
	c0-4.1-3.3-7.3-7.3-7.4H10.7z"/>
</svg>
